# xmcd
#
# Track frame offsets: 
#        150
#        19154
#        41372
#        55498
#        74194
#        89638
#        107332
#        129859
#        142851
#        157498
#        170609
#        182575
#        227626
#        240870
#        258311
#        271841
#        293943
#        311481
#        328033
#        343677
#
# Disc length: 4865 seconds
#
# Revision: 0
# Processed by: cddbd v1.5.2PL0 Copyright (c) Steve Scherf et al.
# Submitted via: ExactAudioCopyFreeDBPlugin 1.0
#
DISCID=2112ff14
DTITLE=Various Artist - Hip-Hop . Eine musikalische Revolution
DYEAR=2019
DGENRE=No, thanks.
TTITLE0=Beginner feat. Gzuz and Gentleman - Ahnma
TTITLE1=Sido - Mein Block (Beathoavenz Video RMX)
TTITLE2=Bonez MC and RAF Camora feat. Maxwell - Ohne mein Team
TTITLE3=Die Fantastischen Vier - Die da!?!
TTITLE4=Deichkind feat. Nina - Bon voyage
TTITLE5=Massive Töne - Cruisen
TTITLE6=Rödelheim Hartreim Projekt - Höha, schnella, weita
TTITLE7=Cro - Easy
TTITLE8=Rin - Bros
TTITLE9=Yung Hurn - OK Cool
TTITLE10=187 Strassenbande feat. Bonez MC and Gzuz - Millionär
TTITLE11=Bushido - Mephisto
TTITLE12=Kontra K - Letzte Träne
TTITLE13=Sabrina Setlur - Du liebst mich nicht
TTITLE14=Genetikk feat. Sido - Lieb's oder lass es
TTITLE15=Max Herre feat. Joy Denalane - 1ste Liebe
TTITLE16=Fettes Brot - Jein
TTITLE17=Casper - So perfekt
TTITLE18=Haftbefehl - Lass die Affen aus'm Zoo
TTITLE19=K.I.Z. feat. Henning May - Hurra die Welt geht unter
EXTD=
EXTT0=
EXTT1=
EXTT2=
EXTT3=
EXTT4=
EXTT5=
EXTT6=
EXTT7=
EXTT8=
EXTT9=
EXTT10=
EXTT11=
EXTT12=
EXTT13=
EXTT14=
EXTT15=
EXTT16=
EXTT17=
EXTT18=
EXTT19=
PLAYORDER=
